<svg width="24" height="24" viewBox="0 0 24 24" fill="none" xmlns="http://www.w3.org/2000/svg">
<path d="M0 0H24V24H0V0Z" fill="white"/>
<path d="M20.5 13H20V12C20 11.2044 19.6839 10.4413 19.1213 9.87868C18.5587 9.31608 17.7956 9.00001 17 9.00001H13V6.72261C13.3813 6.50247 13.6793 6.16268 13.8478 5.75592C14.0162 5.34917 14.0458 4.89818 13.9319 4.47292C13.8179 4.04765 13.5668 3.67187 13.2175 3.40385C12.8682 3.13583 12.4403 2.99055 12 2.99055C11.5597 2.99055 11.1318 3.13583 10.7825 3.40385C10.4332 3.67187 10.1821 4.04765 10.0681 4.47292C9.9542 4.89818 9.98376 5.34917 10.1522 5.75592C10.3207 6.16268 10.6187 6.50247 11 6.72261V9.00001H7C6.20435 9.00001 5.44129 9.31608 4.87868 9.87868C4.31607 10.4413 4 11.2044 4 12V13H3.5C3.10218 13 2.72064 13.158 2.43934 13.4393C2.15804 13.7206 2 14.1022 2 14.5C2 14.8978 2.15804 15.2794 2.43934 15.5607C2.72064 15.842 3.10218 16 3.5 16H4V17C4 17.7957 4.31607 18.5587 4.87868 19.1213C5.44129 19.6839 6.20435 20 7 20H17C17.7956 20 18.5587 19.6839 19.1213 19.1213C19.6839 18.5587 20 17.7957 20 17V16H20.5C20.8978 16 21.2794 15.842 21.5607 15.5607C21.842 15.2794 22 14.8978 22 14.5C22 14.1022 21.842 13.7206 21.5607 13.4393C21.2794 13.158 20.8978 13 20.5 13ZM19 17C18.9994 17.5303 18.7885 18.0386 18.4136 18.4136C18.0386 18.7885 17.5302 18.9994 17 19H7C6.46975 18.9994 5.9614 18.7885 5.58646 18.4135C5.21152 18.0386 5.00061 17.5303 5 17V12C5.0006 11.4698 5.2115 10.9614 5.58645 10.5865C5.96139 10.2115 6.46975 10.0006 7 10H17C17.5303 10.0006 18.0386 10.2115 18.4136 10.5864C18.7885 10.9614 18.9994 11.4698 19 12V17ZM10 14.5C10 14.7967 9.91203 15.0867 9.7472 15.3334C9.58238 15.58 9.34811 15.7723 9.07403 15.8858C8.79994 15.9994 8.49834 16.0291 8.20736 15.9712C7.91639 15.9133 7.64912 15.7704 7.43934 15.5607C7.22956 15.3509 7.0867 15.0836 7.02882 14.7926C6.97094 14.5017 7.00065 14.2001 7.11418 13.926C7.22771 13.6519 7.41997 13.4176 7.66664 13.2528C7.91332 13.088 8.20333 13 8.5 13C8.89782 13 9.27936 13.158 9.56066 13.4393C9.84196 13.7206 10 14.1022 10 14.5ZM17 14.5C17 14.7967 16.912 15.0867 16.7472 15.3334C16.5824 15.58 16.3481 15.7723 16.074 15.8858C15.7999 15.9994 15.4983 16.0291 15.2074 15.9712C14.9164 15.9133 14.6491 15.7704 14.4393 15.5607C14.2296 15.3509 14.0867 15.0836 14.0288 14.7926C13.9709 14.5017 14.0006 14.2001 14.1142 13.926C14.2277 13.6519 14.42 13.4176 14.6666 13.2528C14.9133 13.088 15.2033 13 15.5 13C15.8978 13 16.2794 13.158 16.5607 13.4393C16.842 13.7206 17 14.1022 17 14.5V14.5Z" fill="black"/>
</svg>

